# xmcd CD database file
#
# Track frame offsets:
#	150
#	10125
#	22387
#	37386
#	54467
#	70509
#	91617
#	108064
#	124677
#	141423
#	154480
#	169062
#	184585
#	196669
#	213940
#	231119
#	246167
#	264177
#	279276
#	296767
#	313383
#
# Disc length: 4478 seconds
#
# Revision: 0
# Processed by: cddbd v1.5.1PL2 Copyright (c) Steve Scherf et al.
# Submitted via: CDex 1.51
#
DISCID=2c117c15
DTITLE=Status Quo - Golden Collction 2000
DYEAR=2000
DGENRE=Blues
TTITLE0=Ice In The Sun
TTITLE1=Spicks And Specks
TTITLE2=Spinning Wheel Blues
TTITLE3=Shy Fly
TTITLE4=Junior's Wailing
TTITLE5=Roll Over Lay Down
TTITLE6=Break The Blues
TTITLE7=Caroline
TTITLE8=Down Down
TTITLE9=Paper Plane
TTITLE10=Wild Side Of The Life
TTITLE11=Rockin' All Over The World
TTITLE12=Something 'boit You Baby I Like
TTITLE13=Whatever You Want
TTITLE14=Rock 'n' Roll
TTITLE15=Marguerita Time
TTITLE16=Rolling Home
TTITLE17=The Wanderer
TTITLE18=Burning Bridges
TTITLE19=In The Army
TTITLE20=Anniversary Waltz (Part One)
EXTD=YEAR: 2000
EXTT0=
EXTT1=
EXTT2=
EXTT3=
EXTT4=
EXTT5=
EXTT6=
EXTT7=
EXTT8=
EXTT9=
EXTT10=
EXTT11=
EXTT12=
EXTT13=
EXTT14=
EXTT15=
EXTT16=
EXTT17=
EXTT18=
EXTT19=
EXTT20=
PLAYORDER=
